
 
http://rapidimg.org/server/files/50d1a5dece8df.jpg


Source Used :-

 Video - HS- Thanks!
 Audio - HS - Thanks!

 Video
 ID : 0
 Format : MPEG-4 Visual
 Format profile : Advanced Simple@L5
 Format settings, BVOP : 2
 Format settings, QPel : Yes
 Format settings, GMC : No warppoints
 Format settings, Matrix : Default (H.263)
 Codec ID : XVID
 Codec ID/Hint : XviD
 Duration : 1h 32mn
 Bit rate : 849 Kbps
 Width : 672 pixels
 Height : 288 pixels
 Display aspect ratio : 2.35:1
 Frame rate : 23.976 fps
 Color space : YUV
 Chroma subsampling : 4:2:0
 Bit depth : 8 bits
 Scan type : Progressive
 Compression mode : Lossy
 Bits/(Pixel*Frame) : 0.183
 Stream size : 563 MiB (81%)
 Writing library : XviD 1.2.1 (UTC 2008-12-04)

 Audio
 ID : 1
 Format : AC-3
 Format/Info : Audio Coding 3
 Mode extension : CM (complete main)
 Format settings, Endianness : Big
 Codec ID : 2000
 Duration : 1h 32mn
 Bit rate mode : Constant
 Bit rate : 192 Kbps
 Channel(s) : 6 channels
 Channel positions : Front: L C R, Side: L R, LFE
 Sampling rate : 44.1 KHz
 Bit depth : 16 bits
 Compression mode : Lossy
 Stream size : 126 MiB (18%)
 Alignment : Aligned on interleaves
 Interleave, duration : 70 ms (1.68 video frames)
 Interleave, preload duration : 208 ms
 
 
http://www.imdb.com/title/tt1397280/

In Istanbul, retired CIA operative Bryan Mills and his wife are taken hostage by the father of a kidnapper Mills killed while rescuing his daughter.

 
http://img571.imageshack.us/img571/5742/vlcsnap2012121910h11m54.png 
http://img547.imageshack.us/img547/6941/vlcsnap2012121910h16m20.png 
http://img267.imageshack.us/img267/5958/vlcsnap2012121910h18m47.png 
http://img33.imageshack.us/img33/751/vlcsnap2012121910h25m39.png



